<svg width="776" height="701" viewBox="0 0 776 701" fill="none" xmlns="http://www.w3.org/2000/svg">
<path d="M539.835 169.784C490.475 169.784 460.918 136.081 460.918 84.9406C460.918 33.8007 490.475 1 539.835 1C557.564 1 572.343 6.90169 583.293 17.2662V11.6572C583.293 8.4137 585.951 5.7555 589.195 5.7555H630.58C633.823 5.7555 636.481 8.4137 636.481 11.6572V159.468C636.481 162.711 633.823 165.37 630.58 165.37H589.195C585.951 165.37 583.293 162.711 583.293 159.468V153.249C572.367 163.882 557.564 169.808 539.835 169.808V169.784ZM548.712 122.497C569.709 122.497 583.293 107.718 583.293 85.2577C583.293 62.7971 569.685 48.3111 548.712 48.3111C527.739 48.3111 514.131 62.7971 514.131 85.2577C514.131 107.718 527.739 122.497 548.712 122.497Z" fill="#0C0C0C"/>
<path d="M539.835 459.491C490.475 459.491 460.918 425.788 460.918 374.672C460.918 323.557 490.475 290.732 539.835 290.732C557.564 290.732 572.343 296.633 583.293 306.998V224.52C583.293 221.277 585.951 218.619 589.195 218.619H630.58C633.823 218.619 636.481 221.277 636.481 224.52V449.151C636.481 452.394 633.823 455.052 630.58 455.052H589.195C585.951 455.052 583.293 452.394 583.293 449.151V442.932C572.367 453.565 557.589 459.491 539.835 459.491ZM548.712 412.18C569.709 412.18 583.293 397.401 583.293 374.94C583.293 352.48 569.709 337.994 548.712 337.994C527.714 337.994 514.131 352.48 514.131 374.94C514.131 397.401 527.739 412.18 548.712 412.18Z" fill="#0C0C0C"/>
<path d="M279.256 455.052C276.013 455.052 273.355 452.394 273.355 449.15V301.364C273.355 298.121 276.013 295.462 279.256 295.462H320.641C323.885 295.462 326.543 298.121 326.543 301.364V306.973C337.469 296.633 352.247 290.707 370.001 290.707C419.361 290.707 440.041 323.8 440.041 374.647V449.126C440.041 452.369 437.383 455.028 434.139 455.028H392.754C389.511 455.028 386.853 452.369 386.853 449.126V374.94C386.853 352.48 379.171 337.994 358.173 337.994C337.176 337.994 326.543 352.48 326.543 374.94V449.126C326.543 452.369 323.885 455.028 320.641 455.028H279.256V455.052Z" fill="#0C0C0C"/>
<path d="M194.951 267.661C191.707 267.661 189.049 265.003 189.049 261.76V224.52C189.049 221.277 191.707 218.619 194.951 218.619H239.287C242.53 218.619 245.188 221.277 245.188 224.52V261.76C245.188 265.003 242.53 267.661 239.287 267.661H194.951ZM196.414 455.052C193.171 455.052 190.512 452.394 190.512 449.151V301.364C190.512 298.121 193.171 295.463 196.414 295.463H237.799C241.043 295.463 243.701 298.121 243.701 301.364V449.151C243.701 452.394 241.043 455.052 237.799 455.052H196.414Z" fill="#0C0C0C"/>
<path d="M173.198 448.54C175.271 451.199 173.783 455.052 170.247 455.052H115.863C114.083 455.052 112.913 454.174 111.718 452.686L65.8942 391.791L53.1884 403.034V449.15C53.1884 452.394 50.5302 455.052 47.2867 455.052H5.9017C2.6582 455.052 0 452.394 0 449.15V224.52C0 221.276 2.6582 218.618 5.9017 218.618H47.2867C50.5302 218.618 53.1884 221.276 53.1884 224.52V345.114L102.841 299.901C106.987 296.047 108.157 295.462 115.254 295.462H162.833C166.686 295.462 168.442 299.608 165.784 302.559L103.133 358.722L173.173 448.565L173.198 448.54Z" fill="#0C0C0C"/>
<path d="M675.098 696.482C671.878 696.482 669.269 693.849 669.269 690.654V579.692H645.028C641.809 579.692 639.175 577.058 639.175 573.864V544.672C639.175 541.453 641.809 538.844 645.028 538.844H669.269V535.039C669.269 485.704 692.047 460 735.553 460C749.576 460 762.989 462.634 772.646 466.706C774.695 467.584 775.865 469.633 775.865 471.657V504.068C775.865 507.579 772.354 509.628 768.866 509.043C740.553 504.36 721.848 503.214 721.848 535.039V538.844H762.721C765.94 538.844 768.549 541.478 768.549 544.672V573.864C768.549 577.083 765.915 579.692 762.721 579.692H721.848V690.654C721.848 693.873 719.214 696.482 716.019 696.482H675.146H675.098Z" fill="#0C0C0C"/>
<path d="M547.636 700.872C495.375 700.872 460.916 667.583 460.916 617.077C460.916 566.572 495.375 534.161 547.636 534.161C599.898 534.161 634.357 566.864 634.357 617.077C634.357 667.291 599.898 700.872 547.636 700.872ZM547.636 654.146C568.366 654.146 581.803 639.538 581.803 617.346C581.803 595.153 568.366 580.838 547.636 580.838C526.907 580.838 513.47 595.153 513.47 617.346C513.47 639.538 526.907 654.146 547.636 654.146Z" fill="#0C0C0C"/>
</svg>
